HIERARCHY
ROOT Hips
{
  OFFSET -33.9132 29.2015 117.021
  CHANNELS 6 Xposition Yposition Zposition Zrotation Xrotation Yrotation
  JOINT LeftUpLeg
  {
    OFFSET 8.64259 1.95398 -2.38835
    CHANNELS 3 Zrotation Xrotation Yrotation
    JOINT LeftLeg
    {
      OFFSET 43.7702 0 0
      CHANNELS 3 Zrotation Xrotation Yrotation
      JOINT LeftFoot
      {
        OFFSET 40.6238 0 0
        CHANNELS 3 Zrotation Xrotation Yrotation
        JOINT LeftToeBase
        {
          OFFSET 12.7242 0 0
          CHANNELS 3 Zrotation Xrotation Yrotation
          End Site
          {
            OFFSET 0 0 0
          }
        }
      }
    }
  }
  JOINT RightUpLeg
  {
    OFFSET -8.2249 1.95398 -2.59336
    CHANNELS 3 Zrotation Xrotation Yrotation
    JOINT RightLeg
    {
      OFFSET 43.5653 0 0
      CHANNELS 3 Zrotation Xrotation Yrotation
      JOINT RightFoot
      {
        OFFSET 40.6238 0 0
        CHANNELS 3 Zrotation Xrotation Yrotation
        JOINT RightToeBase
        {
          OFFSET 12.7242 0 0
          CHANNELS 3 Zrotation Xrotation Yrotation
          End Site
          {
            OFFSET 0 0 0
          }
        }
      }
    }
  }
  JOINT Spine
  {
    OFFSET 0.165834 0.87714 6.61349
    CHANNELS 3 Zrotation Xrotation Yrotation
    JOINT Spine1
    {
      OFFSET 7.38963 1.71661e-005 0
      CHANNELS 3 Zrotation Xrotation Yrotation
      JOINT Spine2
      {
        OFFSET 11.9445 1.14441e-005 0
        CHANNELS 3 Zrotation Xrotation Yrotation
        JOINT Spine3
        {
          OFFSET 14.7254 4.19617e-005 0
          CHANNELS 3 Zrotation Xrotation Yrotation
          JOINT Spine4
          {
            OFFSET 10.9679 0 0
            CHANNELS 3 Zrotation Xrotation Yrotation
            JOINT RightShoulder
            {
              OFFSET 2.46616 -1.6653 3.69651
              CHANNELS 3 Zrotation Xrotation Yrotation
              JOINT RightArm
              {
                OFFSET 13.0012 0 0
                CHANNELS 3 Zrotation Xrotation Yrotation
                JOINT RightForeArm
                {
                  OFFSET 28.7848 1.62311e-005 0
                  CHANNELS 3 Zrotation Xrotation Yrotation
                  JOINT RightHand
                  {
                    OFFSET 26.5688 1.62095e-005 0
                    CHANNELS 3 Zrotation Xrotation Yrotation
                    End Site
                    {
                      OFFSET 0 0 0
                    }
                  }
                }
              }
            }
            JOINT LeftShoulder
            {
              OFFSET 2.38034 -1.29275 -3.7523
              CHANNELS 3 Zrotation Xrotation Yrotation
              JOINT LeftArm
              {
                OFFSET 16.3182 6.07031e-005 0
                CHANNELS 3 Zrotation Xrotation Yrotation
                JOINT LeftForeArm
                {
                  OFFSET 27.0901 0 0
                  CHANNELS 3 Zrotation Xrotation Yrotation
                  JOINT LeftHand
                  {
                    OFFSET 24.5451 1.51738e-005 0
                    CHANNELS 3 Zrotation Xrotation Yrotation
                    End Site
                    {
                      OFFSET 0 0 0
                    }
                  }
                }
              }
            }
            JOINT Neck
            {
              OFFSET 5.0226 -0.0266342 0
              CHANNELS 3 Zrotation Xrotation Yrotation
              JOINT Head
              {
                OFFSET 6.69364 2.86102e-005 0
                CHANNELS 3 Zrotation Xrotation Yrotation
                End Site
                {
                  OFFSET 0 0 0
                }
              }
            }
          }
        }
      }
    }
  }
}
MOTION
Frames:	7
Frame Time:	0.0416667
-34.0179 91.0749 38.1313 26.6479 19.0333 121.749 -69.6062 85.8099 -15.4395 -38.6833 13.1858 -9.86436 69.9211 6.9672 0.598583 2.70225 -18.6639 6.88207 77.5539 87.7612 -170.27 -42.5729 -15.3991 5.82221 68.82 -6.40765 -2.46388 18.2602 3.18546 4.90962 0.951483 12.3594 -89.8151 2.15025 1.97165 0.401407 -9.51924 1.98742 0.314179 -32.0639 1.75983 0.975559 -12.0513 1.75984 0.975563 55.4754 -15.755 -179.736 -93.4955 44.7127 17.1342 -4.65312 -31.1419 -5.12183 -0.268741 -0.104966 -29.9887 -86.4916 -11.4082 73.5566 -25.9579 -33.7013 -104.345 -0.45784 12.3954 -0.00103112 12.7917 -1.61243 -16.3194 25.5695 -2.2066 0.982396 0.119925 -2.51766 -2.19235 
-34.0881 90.7551 38.3719 26.5496 19.2805 121.953 -65.2831 85.3526 -19.5565 -39.2051 13.7215 -10.1905 70.2156 7.23065 0.749105 2.13027 -18.9954 6.818 68.37 87.3259 -161.448 -43.3168 -15.2447 6.10181 68.4374 -6.30123 -3.33537 19.3406 1.78396 7.68293 0.914114 12.3574 -89.7789 2.1539 1.91101 0.470691 -9.5157 1.92987 0.386087 -32.0593 1.68117 1.02341 -12.0467 1.68118 1.02339 74.9438 -3.07731 -164.517 -63.1106 33.0201 17.8033 -3.454 -4.41084 -4.88497 -4.23508 0.650621 -26.4907 -86.0656 -10.5799 74.2814 -26.0142 -33.1612 -104.5 -0.557812 12.5373 -0.00116068 13.3015 -1.60291 -15.9157 26.1662 -2.57972 -0.43725 -0.455451 -2.32157 -0.801019 
-34.1024 90.764 38.7039 26.6975 19.6585 122.154 -68.6385 85.4152 -16.0988 -38.7647 13.99 -10.2698 68.464 6.01699 0.81778 5.68863 -15.788 5.62183 72.6179 87.2879 -165.76 -43.3176 -15.3392 6.2439 68.8675 -6.48101 -2.8231 18.4714 2.77903 5.81589 0.907984 12.3116 -89.7989 2.24601 1.89127 0.428855 -9.42361 1.9083 0.345164 -31.9673 1.67492 0.97757 -11.9547 1.67493 0.977573 89.0342 5.57961 -140.201 -27.3227 34.6425 -5.47066 -2.38264 20.1739 -5.18341 -7.09033 1.1468 -25.5979 -86.3667 -11.1796 73.7731 -26.4022 -32.5229 -103.611 -0.598965 10.8535 -0.00155077 12.0794 -1.55596 -16.9033 26.0587 -2.49446 0.350761 -0.606246 -2.53785 -1.41325 
-34.28 90.9743 39.0743 26.78 19.3206 122.155 -67.7092 85.9214 -16.7437 -37.7359 14.0772 -10.3161 68.4488 5.98039 0.959867 6.03343 -17.5865 8.33846 78.1502 87.5544 -170.642 -42.1697 -14.9436 6.10083 68.7362 -6.31824 -2.35662 17.7553 3.36863 5.00055 0.925343 12.1173 -89.7348 2.6332 1.95205 0.545647 -9.03637 1.97419 0.45916 -31.58 1.6978 1.10723 -11.5674 1.69782 1.10723 89.2651 -8.17833 -121.841 -9.8908 38.2324 -38.1405 -2.22432 23.3773 -5.25748 -4.70781 0.751638 -26.608 -86.4083 -11.1366 73.6465 -25.9491 -31.2447 -99.3193 -1.39622 6.43313 -0.00219308 10.4799 -1.73439 -19.9404 26.6295 -2.36943 0.735642 -1.70131 -2.55136 -1.78254 
-33.9451 91.6773 39.402 28.6184 21.4721 122.189 -121.449 85.7165 36.4506 -35.4544 14.4793 -9.93667 67.9984 5.58875 0.644643 4.90612 -18.048 8.00127 142.894 86.1164 124.561 -40.6067 -14.4325 5.90919 67.8692 -5.79266 -3.49802 18.6985 2.91141 5.15803 0.88195 12.0498 -89.8099 2.77008 1.8363 0.39436 -8.89959 1.85188 0.313114 -31.4429 1.63286 0.928122 -11.4303 1.63286 0.92813 91.132 -8.96303 -115.439 2.70579 30.9116 -45.9576 -2.16052 24.592 -5.28889 -6.90174 1.12095 -25.7897 -86.8476 -12.8655 73.3386 -26.2939 -27.4778 -93.1904 -2.69894 3.44888 -0.00411268 11.3726 -1.7883 -19.5842 26.9498 -2.21372 1.16178 -3.26821 -2.53736 -2.2436 
-33.5004 92.5659 39.6349 30.8166 22.29 122.01 -156.914 83.7252 72.0885 -33.0787 13.3059 -9.08085 66.1579 4.16682 0.978988 7.82326 -14.3658 5.63772 164.464 82.5277 104.311 -37.5156 -12.3725 5.31934 66.9047 -4.90812 -2.52535 20.0861 2.1374 5.72328 0.906105 11.7705 -89.7802 3.3285 1.89749 0.440528 -8.34109 1.91504 0.356555 -30.8849 1.67735 0.990558 -10.8722 1.67734 0.990565 90.5707 -10.4435 -115.877 10.4943 24.3892 -44.6678 -2.8572 9.94986 -4.99098 -11.2001 1.32624 -19.4514 -87.0442 -14.2661 73.5018 -26.0076 -22.6094 -84.6198 -4.69084 9.79742 -0.00638794 8.7205 -1.23492 -18.0883 26.558 -1.96574 0.882649 -4.56792 -2.16984 -2.23499 
-32.6632 93.7364 39.8696 33.6647 24.4745 121.537 -168.894 78.4197 84.1707 -29.5019 13.8795 -8.85048 65.9881 3.76166 -0.0511954 6.63372 -17.5049 8.83562 171.951 77.0501 97.5443 -34.1572 -11.5911 4.86223 66.215 -4.32166 -2.31211 19.0418 3.15117 4.04464 0.880138 11.5138 -89.8415 3.84329 1.82241 0.306192 -7.8264 1.83413 0.225649 -30.37 1.64611 0.839871 -10.3574 1.6461 0.839876 90.6965 -11.501 -114.764 19.435 16.9961 -41.6125 -3.6778 -9.73284 -4.89647 -12.3669 1.553 -20.4 -88.0578 -17.7333 72.6079 -22.5988 -18.2482 -74.7021 -7.5695 22.4549 -0.00922416 5.9274 -0.828924 -18.6129 25.447 -1.70881 0.0273861 -6.01315 -1.61255 -1.40448 
